<mxfile host="app.diagrams.net" modified="2023-08-12T12:53:28.122Z" agent="Mozilla/5.0 (Windows NT 10.0; Win64; x64; rv:109.0) Gecko/20100101 Firefox/116.0" etag="HIQcaLfwJ6j07zdov1cg" version="21.6.6" type="github">
  <diagram name="第 1 页" id="I7wRqX6o6iVsvMivSF8k">
    <mxGraphModel dx="1050" dy="530" grid="1" gridSize="10" guides="1" tooltips="1" connect="1" arrows="1" fold="1" page="1" pageScale="1" pageWidth="1169" pageHeight="827" math="0" shadow="0">
      <root>
        <mxCell id="0" />
        <mxCell id="1" parent="0" />
        <mxCell id="Kph6k_vnseVxjCQ0fYsG-20" value="" style="edgeStyle=orthogonalEdgeStyle;rounded=0;orthogonalLoop=1;jettySize=auto;html=1;" parent="1" source="Kph6k_vnseVxjCQ0fYsG-18" target="Kph6k_vnseVxjCQ0fYsG-19" edge="1">
          <mxGeometry relative="1" as="geometry" />
        </mxCell>
        <mxCell id="Kph6k_vnseVxjCQ0fYsG-18" value="input" style="rounded=1;whiteSpace=wrap;html=1;absoluteArcSize=1;arcSize=14;strokeWidth=2;" parent="1" vertex="1">
          <mxGeometry x="70" y="210" width="130" height="60" as="geometry" />
        </mxCell>
        <mxCell id="Kph6k_vnseVxjCQ0fYsG-23" value="" style="edgeStyle=orthogonalEdgeStyle;rounded=0;orthogonalLoop=1;jettySize=auto;html=1;" parent="1" source="Kph6k_vnseVxjCQ0fYsG-19" target="Kph6k_vnseVxjCQ0fYsG-22" edge="1">
          <mxGeometry relative="1" as="geometry" />
        </mxCell>
        <mxCell id="Kph6k_vnseVxjCQ0fYsG-29" style="edgeStyle=orthogonalEdgeStyle;rounded=0;orthogonalLoop=1;jettySize=auto;html=1;exitX=0.5;exitY=0;exitDx=0;exitDy=0;exitPerimeter=0;entryX=0;entryY=0.5;entryDx=0;entryDy=0;" parent="1" source="Kph6k_vnseVxjCQ0fYsG-19" target="Kph6k_vnseVxjCQ0fYsG-26" edge="1">
          <mxGeometry relative="1" as="geometry" />
        </mxCell>
        <mxCell id="Kph6k_vnseVxjCQ0fYsG-19" value="picture OR video" style="strokeWidth=2;html=1;shape=mxgraph.flowchart.decision;whiteSpace=wrap;" parent="1" vertex="1">
          <mxGeometry x="260" y="202.5" width="120" height="75" as="geometry" />
        </mxCell>
        <mxCell id="Kph6k_vnseVxjCQ0fYsG-22" value="Processing" style="rounded=1;whiteSpace=wrap;html=1;strokeWidth=2;" parent="1" vertex="1">
          <mxGeometry x="540" y="210" width="150" height="60" as="geometry" />
        </mxCell>
        <mxCell id="Kph6k_vnseVxjCQ0fYsG-30" style="edgeStyle=orthogonalEdgeStyle;rounded=0;orthogonalLoop=1;jettySize=auto;html=1;exitX=1;exitY=0.5;exitDx=0;exitDy=0;entryX=0.547;entryY=-0.033;entryDx=0;entryDy=0;entryPerimeter=0;" parent="1" source="Kph6k_vnseVxjCQ0fYsG-26" target="Kph6k_vnseVxjCQ0fYsG-22" edge="1">
          <mxGeometry relative="1" as="geometry" />
        </mxCell>
        <mxCell id="Kph6k_vnseVxjCQ0fYsG-26" value="OCR" style="whiteSpace=wrap;html=1;strokeWidth=2;" parent="1" vertex="1">
          <mxGeometry x="430" y="60" width="80" height="60" as="geometry" />
        </mxCell>
        <mxCell id="Kph6k_vnseVxjCQ0fYsG-31" value="picture" style="text;html=1;align=center;verticalAlign=middle;resizable=0;points=[];autosize=1;strokeColor=none;fillColor=none;" parent="1" vertex="1">
          <mxGeometry x="420" y="218" width="60" height="30" as="geometry" />
        </mxCell>
        <mxCell id="Kph6k_vnseVxjCQ0fYsG-32" value="video" style="text;html=1;align=center;verticalAlign=middle;resizable=0;points=[];autosize=1;strokeColor=none;fillColor=none;rotation=90;" parent="1" vertex="1">
          <mxGeometry x="290" y="130" width="50" height="30" as="geometry" />
        </mxCell>
      </root>
    </mxGraphModel>
  </diagram>
</mxfile>
